<svg width="34" height="34" viewBox="0 0 34 34" fill="none" xmlns="http://www.w3.org/2000/svg">
<path fill-rule="evenodd" clip-rule="evenodd" d="M17 2.90409C13.1562 2.90409 12.6728 2.91588 11.1636 2.98662C9.65434 3.05147 8.62855 3.29318 7.72655 3.64101C6.79508 4.00063 6.00511 4.48405 5.21512 5.26814C4.42514 6.05223 3.9417 6.84222 3.58208 7.77369C3.22836 8.66979 2.99255 9.70149 2.9218 11.2048C2.85106 12.7082 2.83337 13.1916 2.83337 17.0354C2.83337 20.8733 2.84516 21.3567 2.9159 22.8659C2.98075 24.3693 3.22247 25.3951 3.5703 26.2971C3.92992 27.2226 4.41335 28.0126 5.19744 28.8026C5.98153 29.5867 6.77151 30.0701 7.70299 30.4298C8.59909 30.7776 9.63077 31.0134 11.1341 31.0841C12.6374 31.149 13.1209 31.1667 16.9647 31.1667C20.8026 31.1667 21.286 31.149 22.7952 31.0782C24.2986 31.0075 25.3244 30.7658 26.2264 30.418C27.1519 30.0524 27.9419 29.569 28.7319 28.7849C29.516 27.9949 29.9994 27.205 30.359 26.2735C30.7068 25.3715 30.9427 24.3398 31.0134 22.8365C31.0783 21.3272 31.0959 20.8438 31.0959 17C31.0959 13.1562 31.0783 12.6728 31.0075 11.1636C30.9368 9.65433 30.6951 8.62852 30.3472 7.72653C29.9817 6.79505 29.4983 6.00507 28.7142 5.21508C27.9242 4.4251 27.1342 3.94167 26.2028 3.58205C25.3008 3.22833 24.2691 2.99252 22.7658 2.92177C21.2565 2.85103 20.7731 2.83334 16.9293 2.83334L17 2.90409ZM17 5.45091C20.7731 5.45091 21.2211 5.46269 22.7127 5.52754C24.0863 5.58649 24.8409 5.81642 25.3361 6.01097C25.9964 6.26447 26.4622 6.57103 26.9574 7.06624C27.4467 7.55556 27.7533 8.02719 28.0126 8.68748C28.2013 9.18269 28.4312 9.93141 28.4961 11.3109C28.5609 12.8025 28.5727 13.2446 28.5727 17.0236C28.5727 20.7966 28.555 21.2447 28.4902 22.7362C28.4253 24.1099 28.1954 24.8645 28.0008 25.3597C27.7414 26.02 27.4349 26.4857 26.9397 26.9809C26.4445 27.4703 25.9728 27.7768 25.3125 28.0362C24.8114 28.2249 24.0627 28.4548 22.6832 28.5196C21.1858 28.5845 20.7436 28.5963 16.9647 28.5963C13.1857 28.5963 12.7376 28.5786 11.2461 28.5137C9.86659 28.4489 9.11198 28.219 8.61677 28.0244C7.95058 27.765 7.48484 27.4585 6.98963 26.9632C6.49441 26.468 6.18786 25.9964 5.92846 25.3361C5.73391 24.835 5.504 24.0863 5.43915 22.7068C5.36841 21.2093 5.35661 20.7672 5.35661 16.9882C5.35661 13.2093 5.3684 12.7612 5.43325 11.2697C5.4922 9.89015 5.72213 9.13553 5.91668 8.64032C6.17018 7.97413 6.47673 7.5084 6.97194 7.01319C7.46126 6.51797 7.93289 6.21141 8.59318 5.95201C9.08839 5.75746 9.83712 5.52754 11.2166 5.46269C12.7082 5.39195 13.1503 5.38016 16.9293 5.38016L17 5.45091ZM17 9.78403C12.9853 9.78403 9.73101 13.0324 9.73101 17.0472C9.73101 21.0561 12.9794 24.3103 16.9941 24.3103C21.003 24.3103 24.2573 21.056 24.2573 17.0413C24.2573 13.0265 21.003 9.77223 16.9882 9.77223L17 9.78403ZM17 21.7635C14.3943 21.7635 12.2778 19.6471 12.2778 17.0472C12.2778 14.4414 14.3884 12.3249 16.9941 12.3249C19.594 12.3249 21.7046 14.4355 21.7046 17.0413C21.7046 19.6411 19.5881 21.7517 16.9882 21.7517L17 21.7635ZM26.2499 9.48926C26.2499 10.4266 25.4894 11.1812 24.5461 11.1812C23.6029 11.1812 22.8483 10.4207 22.8483 9.48336C22.8483 8.5401 23.6029 7.77959 24.5402 7.77959C25.4776 7.77959 26.2381 8.5342 26.2381 9.47746L26.2499 9.48926Z" fill="#333333"/>
</svg>
