<svg width="178" height="68" viewBox="0 0 178 68" fill="none" xmlns="http://www.w3.org/2000/svg">
<path fill-rule="evenodd" clip-rule="evenodd" d="M26.0217 38.2146C34.5409 38.2146 41.4574 44.8867 41.4574 53.1048C41.4574 61.323 34.5409 67.9951 26.0217 67.9951C17.5026 67.9951 10.5862 61.323 10.5862 53.1048C10.5862 44.8867 17.5026 38.2146 26.0217 38.2146ZM26.0217 45.2283C30.5282 45.2283 34.1868 48.7576 34.1868 53.1048C34.1868 57.452 30.5282 60.9815 26.0217 60.9815C21.5154 60.9815 17.8567 57.452 17.8567 53.1048C17.8567 48.7576 21.5154 45.2283 26.0217 45.2283Z" fill="black"/>
<path fill-rule="evenodd" clip-rule="evenodd" d="M12.1766 39.7392L8.61546 28.861C8.61546 28.8609 16.4171 32.5403 16.4171 32.5403C17.3572 32.9836 18.4612 32.9623 19.3821 32.4831C20.303 32.0037 20.9277 31.1253 21.0599 30.124L22.5687 18.6875L29.6741 24.5899C30.3493 25.1507 31.2338 25.4189 32.1202 25.3317C33.0066 25.2444 33.8167 24.8093 34.3605 24.1285L42.5335 13.8959L38.9474 39.3972C38.7497 41.1138 40.0338 42.6623 41.8133 42.853C43.5927 43.0437 45.1979 41.805 45.3956 40.0884L50.2615 3.47518C50.4222 2.08029 49.6005 0.752865 48.2514 0.227621C46.9023 -0.297623 45.3557 0.107911 44.4678 1.21962L31.3119 17.691L22.2294 10.1463C21.3245 9.39451 20.0645 9.18328 18.9497 9.59622C17.8348 10.0092 17.0454 10.9797 16.8946 12.1225L15.1959 24.9978L4.66886 20.033C3.50325 19.4834 2.11029 19.6565 1.12718 20.4732C0.144081 21.29 -0.239965 22.5933 0.150687 23.7867L5.98986 41.624C6.52893 43.2709 8.3528 44.1858 10.06 43.6657C11.7674 43.1456 12.7157 41.3862 12.1766 39.7392Z" fill="black"/>
<path d="M72.718 38.3037H62.8035V13.3895H72.7049C75.4378 13.3895 77.7931 13.8862 79.7708 14.8797C81.7484 15.8732 83.2742 17.3006 84.3482 19.1618C85.4222 21.0231 85.9592 23.2473 85.9592 25.8344C85.9592 28.4296 85.4244 30.6599 84.3548 32.5252C83.2852 34.3905 81.7594 35.82 79.7773 36.8135C77.7953 37.8069 75.4422 38.3037 72.718 38.3037ZM69.2865 33.17H72.4691C73.9709 33.17 75.2435 32.9328 76.2869 32.4583C77.3303 31.9839 78.1205 31.2094 78.6575 30.1348C79.1945 29.0601 79.463 27.6268 79.463 25.8344C79.463 24.0421 79.1923 22.6127 78.651 21.5462C78.1096 20.4797 77.3129 19.7093 76.2607 19.2348C75.2086 18.7604 73.9142 18.5232 72.3775 18.5232H69.2865V33.17Z" fill="black"/>
<path d="M97.2906 38.6579C95.1863 38.6579 93.3724 38.2706 91.8487 37.4962C90.3251 36.7217 89.1551 35.6146 88.3388 34.1751C87.5223 32.7355 87.1141 31.0223 87.1141 29.0353C87.1141 27.1051 87.5245 25.4162 88.3453 23.9685C89.1661 22.5209 90.3229 21.3936 91.8161 20.5866C93.3091 19.7797 95.0685 19.3762 97.0941 19.3762C98.5261 19.3762 99.8358 19.583 101.023 19.9966C102.211 20.4102 103.237 21.0226 104.101 21.8336C104.966 22.6445 105.638 23.6441 106.118 24.8323C106.598 26.0204 106.838 27.3808 106.838 28.9136V30.3978H89.3538V26.9429H100.879C100.871 26.3103 100.709 25.7467 100.395 25.252C100.08 24.7572 99.6503 24.37 99.1046 24.0902C98.5589 23.8104 97.9324 23.6705 97.2251 23.6705C96.5092 23.6705 95.8674 23.8185 95.2999 24.1145C94.7323 24.4105 94.2827 24.812 93.9508 25.3189C93.619 25.8258 93.4445 26.3996 93.4269 27.0402V30.556C93.4269 31.3183 93.5885 31.9854 93.9116 32.5571C94.2347 33.1289 94.693 33.5729 95.2867 33.8892C95.8805 34.2055 96.5877 34.3637 97.4085 34.3637C97.976 34.3637 98.4912 34.2906 98.9539 34.1447C99.4167 33.9986 99.814 33.7838 100.146 33.4999C100.478 33.216 100.726 32.8673 100.892 32.4537L106.773 32.6119C106.528 33.8365 105.994 34.9009 105.169 35.8052C104.343 36.7095 103.263 37.411 101.927 37.9097C100.591 38.4086 99.0456 38.6579 97.2906 38.6579Z" fill="black"/>
<path d="M125.845 25.3249L119.964 25.4709C119.903 25.0817 119.737 24.7349 119.467 24.4308C119.196 24.1267 118.844 23.8874 118.412 23.7131C117.98 23.5387 117.48 23.4515 116.913 23.4515C116.17 23.4515 115.54 23.5894 115.02 23.8651C114.501 24.1409 114.245 24.5139 114.254 24.9843C114.245 25.3492 114.405 25.6656 114.732 25.9332C115.059 26.2008 115.647 26.4158 116.493 26.5779L120.37 27.2592C122.378 27.6161 123.874 28.2081 124.856 29.0353C125.838 29.8626 126.334 30.9574 126.343 32.3199C126.334 33.6013 125.926 34.7164 125.118 35.6653C124.31 36.6142 123.208 37.3501 121.811 37.8733C120.414 38.3964 118.816 38.6579 117.017 38.6579C114.145 38.6579 111.881 38.1085 110.227 37.0095C108.572 35.9106 107.627 34.4366 107.391 32.5875L113.717 32.4416C113.857 33.1228 114.219 33.6418 114.804 33.9986C115.389 34.3556 116.136 34.5339 117.044 34.5339C117.864 34.5339 118.532 34.392 119.047 34.1081C119.563 33.8243 119.825 33.4472 119.833 32.9768C119.825 32.5551 119.624 32.2165 119.231 31.961C118.838 31.7056 118.222 31.5048 117.384 31.3589L113.874 30.7384C111.857 30.3978 110.355 29.7673 109.369 28.8468C108.382 27.9262 107.893 26.7523 107.902 25.3249C107.893 24.076 108.251 23.0075 108.976 22.1195C109.7 21.2314 110.731 20.5522 112.067 20.0817C113.403 19.6114 114.979 19.3762 116.795 19.3762C119.519 19.3762 121.667 19.9054 123.239 20.9637C124.81 22.0221 125.679 23.4759 125.845 25.3249Z" fill="black"/>
<path d="M127.642 38.3027V19.6171H134.046V38.3027H127.642ZM130.864 17.4395C129.956 17.4395 129.179 17.1617 128.532 16.6063C127.886 16.0507 127.563 15.3796 127.563 14.5929C127.563 13.8144 127.886 13.1473 128.532 12.5918C129.179 12.0362 129.951 11.7584 130.851 11.7584C131.759 11.7584 132.534 12.0362 133.175 12.5918C133.817 13.1473 134.138 13.8144 134.138 14.5929C134.138 15.3796 133.817 16.0507 133.175 16.6063C132.534 17.1617 131.763 17.4395 130.864 17.4395Z" fill="black"/>
<path d="M145.64 45.5434C143.728 45.5434 142.091 45.3001 140.728 44.8135C139.366 44.3268 138.297 43.6639 137.52 42.8245C136.743 41.9851 136.275 41.0463 136.118 40.0083L142.182 39.6919C142.296 40.0245 142.507 40.3205 142.817 40.58C143.127 40.8395 143.533 41.0443 144.035 41.1944C144.538 41.3444 145.129 41.4194 145.81 41.4194C146.884 41.4194 147.773 41.1842 148.475 40.7138C149.178 40.2434 149.53 39.4487 149.53 38.3295V35.0449H149.307C149.054 35.6207 148.67 36.1356 148.155 36.5899C147.639 37.0441 147 37.4009 146.236 37.6604C145.472 37.9199 144.596 38.0497 143.61 38.0497C142.143 38.0497 140.801 37.7314 139.582 37.0947C138.364 36.458 137.391 35.4687 136.662 34.1264C135.933 32.7842 135.568 31.0547 135.568 28.938C135.568 26.7564 135.944 24.958 136.695 23.5427C137.445 22.1276 138.43 21.0793 139.648 20.3981C140.866 19.7168 142.178 19.3762 143.584 19.3762C144.64 19.3762 145.546 19.5445 146.301 19.8811C147.057 20.2177 147.679 20.6495 148.168 21.1766C148.657 21.7038 149.028 22.2512 149.281 22.819H149.464V19.6195H155.843V38.3781C155.843 39.9109 155.415 41.2106 154.559 42.277C153.703 43.3435 152.507 44.1545 150.97 44.7101C149.434 45.2656 147.657 45.5434 145.64 45.5434ZM145.836 33.7189C146.614 33.7189 147.277 33.5283 147.827 33.1471C148.377 32.7659 148.801 32.2186 149.098 31.5048C149.394 30.7912 149.543 29.9355 149.543 28.938C149.543 27.9242 149.397 27.0504 149.104 26.3164C148.812 25.5824 148.388 25.0167 147.834 24.6194C147.279 24.2219 146.614 24.0233 145.836 24.0233C145.042 24.0233 144.369 24.226 143.819 24.6315C143.269 25.0371 142.852 25.6068 142.569 26.3407C142.285 27.0747 142.143 27.9404 142.143 28.938C142.143 29.9355 142.287 30.7912 142.575 31.5048C142.863 32.2186 143.28 32.7659 143.826 33.1471C144.372 33.5283 145.042 33.7189 145.836 33.7189Z" fill="black"/>
<path d="M164.477 27.6485V38.3051H158.072V19.6195H164.163V23.0501H164.385C164.831 21.9066 165.59 21.0084 166.664 20.3555C167.738 19.7026 169.017 19.3762 170.502 19.3762C171.916 19.3762 173.145 19.6702 174.188 20.2582C175.232 20.8461 176.044 21.6653 176.625 22.7155C177.205 23.7658 177.491 24.9924 177.482 26.3955V38.3051H171.078V27.5633C171.087 26.5253 170.805 25.7143 170.233 25.1303C169.661 24.5464 168.869 24.2544 167.856 24.2544C167.184 24.2544 166.592 24.3903 166.081 24.6619C165.571 24.9337 165.178 25.3209 164.903 25.8238C164.627 26.3265 164.486 26.9348 164.477 27.6485Z" fill="black"/>
<path d="M62.8031 67.6456V42.7314H73.988C75.9962 42.7314 77.6792 42.9949 79.037 43.5221C80.3947 44.0493 81.4163 44.7873 82.1018 45.7362C82.7871 46.685 83.1299 47.784 83.1299 49.0329C83.1299 49.9818 82.9159 50.8273 82.4881 51.5694C82.0603 52.3114 81.4709 52.9258 80.72 53.4124C79.9691 53.899 79.1003 54.2396 78.1137 54.4342V54.6775C79.1963 54.7262 80.1983 54.9979 81.1194 55.4926C82.0406 55.9873 82.7806 56.6746 83.3394 57.5546C83.8982 58.4345 84.1776 59.4746 84.1776 60.675C84.1776 62.0131 83.8109 63.2073 83.0775 64.2576C82.344 65.3078 81.2831 66.1351 79.8948 66.7393C78.5065 67.3434 76.8214 67.6456 74.8393 67.6456H62.8031ZM69.2862 62.7917H73.2939C74.6996 62.7917 75.7365 62.5444 76.4045 62.0496C77.0724 61.5549 77.4064 60.8656 77.4064 59.9816C77.4064 59.3408 77.2449 58.7873 76.9218 58.321C76.5987 57.8547 76.1403 57.4938 75.5466 57.2383C74.9529 56.9828 74.2412 56.8551 73.4117 56.8551H69.2862V62.7917ZM69.2862 52.9744H72.8748C73.582 52.9744 74.2107 52.8649 74.7608 52.6459C75.3108 52.427 75.7409 52.1107 76.0508 51.6971C76.3608 51.2835 76.5157 50.7847 76.5157 50.2008C76.5157 49.3654 76.197 48.7085 75.5597 48.23C74.9223 47.7516 74.0622 47.5123 72.9795 47.5123H69.2862V52.9744Z" fill="black"/>
<path d="M98.4295 59.5713V48.9512H104.821V67.6368H98.7177V64.1576H98.5081C98.0627 65.3011 97.3053 66.2074 96.2357 66.8765C95.1661 67.5455 93.876 67.8801 92.3656 67.8801C90.9947 67.8801 89.7897 67.5882 88.7507 67.0042C87.7117 66.4203 86.904 65.6032 86.3278 64.553C85.7514 63.5027 85.459 62.272 85.4502 60.8609V48.9512H91.8548V59.693C91.8635 60.7067 92.1516 61.5055 92.7191 62.0895C93.2867 62.6734 94.0594 62.9654 95.0373 62.9654C95.6747 62.9654 96.2488 62.8336 96.7596 62.57C97.2704 62.3065 97.6764 61.9212 97.9777 61.4144C98.2789 60.9074 98.4295 60.2932 98.4295 59.5713Z" fill="black"/>
<path d="M124.614 54.6671L118.734 54.8131C118.673 54.4238 118.507 54.0771 118.236 53.7729C117.965 53.4689 117.614 53.2296 117.182 53.0552C116.749 52.8808 116.25 52.7937 115.682 52.7937C114.94 52.7937 114.309 52.9315 113.79 53.2072C113.27 53.483 113.015 53.8561 113.023 54.3264C113.015 54.6915 113.174 55.0077 113.501 55.2754C113.829 55.543 114.416 55.7579 115.263 55.9201L119.14 56.6014C121.148 56.9582 122.643 57.5502 123.626 58.3774C124.608 59.2047 125.103 60.2996 125.112 61.6621C125.103 62.9434 124.695 64.0586 123.887 65.0074C123.08 65.9563 121.977 66.6923 120.58 67.2154C119.183 67.7385 117.585 68.0001 115.787 68.0001C112.914 68.0001 110.651 67.4506 108.996 66.3517C107.341 65.2528 106.396 63.7788 106.16 61.9297L112.486 61.7837C112.626 62.465 112.988 62.9839 113.573 63.3409C114.158 63.6977 114.905 63.8761 115.813 63.8761C116.634 63.8761 117.302 63.7342 117.817 63.4503C118.332 63.1665 118.594 62.7894 118.603 62.319C118.594 61.8973 118.393 61.5587 118 61.3031C117.607 61.0477 116.992 60.8469 116.154 60.701L112.644 60.0806C110.627 59.74 109.125 59.1094 108.138 58.1889C107.151 57.2684 106.662 56.0945 106.671 54.6671C106.662 53.4181 107.02 52.3497 107.745 51.4616C108.47 50.5735 109.5 49.8943 110.836 49.424C112.172 48.9535 113.748 48.7183 115.564 48.7183C118.288 48.7183 120.436 49.2475 122.008 50.3059C123.58 51.3643 124.448 52.818 124.614 54.6671Z" fill="black"/>
<path d="M137.766 48.9649V53.3444H125.075V48.9649H137.766ZM127.734 44.4881H134.138V61.7748C134.138 62.1397 134.201 62.4337 134.328 62.6568C134.455 62.8798 134.64 63.0379 134.885 63.1312C135.129 63.2245 135.422 63.271 135.762 63.271C136.007 63.271 136.266 63.2488 136.541 63.2041C136.817 63.1595 137.024 63.121 137.164 63.0885L138.133 67.3829C137.827 67.4639 137.397 67.5653 136.843 67.687C136.288 67.8086 135.627 67.8857 134.859 67.9181C133.357 67.983 132.071 67.8188 131.001 67.4254C129.932 67.0321 129.115 66.4178 128.552 65.5825C127.989 64.7471 127.716 63.6969 127.734 62.4317V44.4881Z" fill="black"/>
<path d="M148.391 68.0001C146.287 68.0001 144.473 67.6128 142.949 66.8383C141.425 66.0638 140.255 64.9568 139.439 63.5172C138.623 62.0777 138.214 60.3644 138.214 58.3774C138.214 56.4472 138.625 54.7583 139.446 53.3107C140.266 51.863 141.423 50.7357 142.916 49.9288C144.409 49.1218 146.169 48.7183 148.194 48.7183C149.626 48.7183 150.936 48.9251 152.124 49.3388C153.311 49.7524 154.337 50.3647 155.201 51.1757C156.066 51.9868 156.738 52.9863 157.218 54.1744C157.699 55.3626 157.939 56.723 157.939 58.2558V59.74H140.454V56.2851H151.98C151.971 55.6525 151.809 55.0888 151.495 54.5941C151.181 54.0994 150.751 53.7122 150.205 53.4323C149.659 53.1526 149.033 53.0127 148.325 53.0127C147.609 53.0127 146.968 53.1607 146.4 53.4567C145.833 53.7527 145.383 54.1542 145.051 54.661C144.719 55.1679 144.545 55.7417 144.527 56.3824V59.8981C144.527 60.6605 144.689 61.3275 145.012 61.8993C145.335 62.471 145.793 62.9151 146.387 63.2314C146.981 63.5476 147.688 63.7058 148.509 63.7058C149.076 63.7058 149.591 63.6328 150.054 63.4868C150.517 63.3409 150.914 63.1259 151.246 62.842C151.578 62.5582 151.827 62.2095 151.993 61.7959L157.873 61.954C157.629 63.1786 157.094 64.2431 156.269 65.1474C155.444 66.0516 154.363 66.7531 153.027 67.2519C151.691 67.7507 150.146 68.0001 148.391 68.0001Z" fill="black"/>
<path d="M159.382 67.6414V48.9558H165.603V52.362H165.813C166.18 51.1293 166.778 50.2108 167.607 49.6066C168.437 49.0024 169.401 48.7003 170.502 48.7003C170.798 48.7003 171.104 48.7185 171.418 48.7551C171.733 48.7915 172.025 48.8463 172.296 48.9193V54.0894C171.99 53.9921 171.591 53.9151 171.098 53.8583C170.604 53.8016 170.165 53.7731 169.781 53.7731C169.022 53.7731 168.338 53.9293 167.732 54.2415C167.125 54.5537 166.649 54.9876 166.304 55.5432C165.959 56.0987 165.787 56.7496 165.787 57.4957V67.6414H159.382Z" fill="black"/>
</svg>
