<svg width="34" height="34" viewBox="0 0 34 34" fill="none" xmlns="http://www.w3.org/2000/svg">
<path fill-rule="evenodd" clip-rule="evenodd" d="M13.8197 20.7919L13.8132 11.9624L22.2335 16.3869L13.8068 20.7789L13.8197 20.7919ZM32.317 10.4355C32.317 10.4355 32.0117 8.26549 31.0761 7.31691C29.8871 6.06297 28.5552 6.05648 27.951 5.98501C23.5849 5.66665 17.0358 5.66666 17.0358 5.66666H17.0163C17.0163 5.66666 10.4672 5.66664 6.10117 5.97851C5.49044 6.04997 4.15853 6.05648 2.96956 7.30392C2.03397 8.2525 1.72861 10.416 1.72861 10.416C1.72861 10.416 1.41675 12.9564 1.41675 15.4968V17.8747C1.41675 20.4151 1.72861 22.9555 1.72861 22.9555C1.72861 22.9555 2.02748 25.119 2.96306 26.0676C4.14554 27.315 5.70484 27.2761 6.40003 27.406C8.89493 27.6464 17.0033 27.7179 17.0033 27.7179C17.0033 27.7179 23.5524 27.7049 27.9185 27.3865C28.5227 27.3085 29.8546 27.302 31.0371 26.0546C31.9662 25.0995 32.2716 22.936 32.2716 22.936C32.2716 22.936 32.5834 20.3891 32.5834 17.8487V15.4643C32.5834 12.9174 32.2716 10.3771 32.2716 10.3771L32.317 10.4355Z" fill="#333333"/>
</svg>
