<svg width="50" height="24" viewBox="0 0 50 24" fill="none" xmlns="http://www.w3.org/2000/svg">
<path fill-rule="evenodd" clip-rule="evenodd" d="M10.1231 12.9918C12.1279 12.9918 13.7555 14.5619 13.7555 16.4959C13.7555 18.4298 12.1279 19.9999 10.1231 19.9999C8.11836 19.9999 6.49075 18.4298 6.49075 16.4959C6.49075 14.5619 8.11836 12.9918 10.1231 12.9918ZM10.1231 14.6423C11.1836 14.6423 12.0446 15.4729 12.0446 16.4959C12.0446 17.5189 11.1836 18.3494 10.1231 18.3494C9.06267 18.3494 8.20169 17.5189 8.20169 16.4959C8.20169 15.4729 9.06267 14.6423 10.1231 14.6423Z" fill="#EB5757"/>
<path fill-rule="evenodd" clip-rule="evenodd" d="M6.86546 13.3516L6.02744 10.7917C6.02744 10.7917 7.86337 11.6576 7.86337 11.6576C8.08458 11.7619 8.34439 11.7569 8.5611 11.6441C8.77782 11.5313 8.92483 11.3246 8.95592 11.0889L9.31099 8.39765L10.9831 9.78661C11.142 9.91859 11.3501 9.98171 11.5587 9.96119C11.7673 9.94065 11.9579 9.83825 12.0859 9.67804L14.0092 7.27005L13.1653 13.2712C13.1188 13.6751 13.421 14.0395 13.8397 14.0844C14.2585 14.1293 14.6362 13.8378 14.6827 13.4338L15.8278 4.8178C15.8656 4.48954 15.6723 4.17717 15.3548 4.05356C15.0373 3.92996 14.6733 4.02539 14.4644 4.28701L11.3685 8.16313L9.23113 6.38768C9.01819 6.21076 8.72169 6.16106 8.45935 6.25823C8.19699 6.35543 8.01122 6.58379 7.97574 6.85272L7.57599 9.88261L5.0987 8.71427C4.8244 8.58493 4.4966 8.62566 4.26526 8.81785C4.03391 9.01007 3.94353 9.31676 4.03546 9.59761L5.40956 13.7952C5.53642 14.1827 5.96562 14.398 6.36738 14.2756C6.76916 14.1532 6.99232 13.7392 6.86546 13.3516Z" fill="#EB5757"/>
<path d="M21.1121 13.0117H18.779V7.14877H21.109C21.7521 7.14877 22.3064 7.26566 22.7718 7.49946C23.2372 7.73325 23.5963 8.06915 23.849 8.50715C24.1017 8.94516 24.2281 9.46857 24.2281 10.0774C24.2281 10.6881 24.1022 11.2129 23.8505 11.6519C23.5988 12.0908 23.2398 12.4272 22.7734 12.661C22.3069 12.8948 21.7532 13.0117 21.1121 13.0117ZM20.3046 11.8036H21.0535C21.407 11.8036 21.7064 11.7478 21.952 11.6362C22.1975 11.5245 22.3835 11.3422 22.5098 11.0894C22.6362 10.8365 22.6994 10.4992 22.6994 10.0774C22.6994 9.6556 22.6357 9.31922 22.5083 9.06826C22.3809 8.81728 22.1934 8.63597 21.9458 8.52433C21.6982 8.41269 21.3936 8.35686 21.032 8.35686H20.3046V11.8036Z" fill="#EB5757"/>
<path d="M26.8945 13.0951C26.3993 13.0951 25.9724 13.0039 25.6139 12.8217C25.2553 12.6394 24.98 12.3789 24.7879 12.0401C24.5957 11.7014 24.4997 11.2982 24.4997 10.8306C24.4997 10.3764 24.5963 9.97895 24.7894 9.63828C24.9826 9.29761 25.2548 9.03233 25.6062 8.84244C25.9575 8.65254 26.3715 8.55759 26.8482 8.55759C27.1852 8.55759 27.4934 8.60626 27.7729 8.7036C28.0523 8.80092 28.2938 8.94502 28.4972 9.13587C28.7006 9.32671 28.8588 9.56194 28.9718 9.84154C29.0848 10.1211 29.1413 10.4413 29.1413 10.802V11.1512H25.0267V10.3382H27.739C27.7369 10.1894 27.6989 10.0567 27.6249 9.94031C27.551 9.82388 27.4498 9.73276 27.3213 9.66691C27.1929 9.60107 27.0455 9.56814 26.8791 9.56814C26.7106 9.56814 26.5596 9.60298 26.426 9.67263C26.2924 9.7423 26.1866 9.83678 26.1085 9.95605C26.0305 10.0753 25.9894 10.2104 25.9853 10.3611V11.1885C25.9853 11.3679 26.0233 11.5248 26.0993 11.6594C26.1753 11.7939 26.2832 11.8984 26.4229 11.9729C26.5626 12.0473 26.7291 12.0845 26.9222 12.0845C27.0558 12.0845 27.177 12.0673 27.2859 12.033C27.3948 11.9986 27.4883 11.9481 27.5664 11.8813C27.6445 11.8144 27.703 11.7324 27.742 11.6351L29.1259 11.6723C29.0684 11.9605 28.9425 12.2109 28.7484 12.4238C28.5542 12.6366 28.2999 12.8016 27.9855 12.919C27.6712 13.0364 27.3075 13.0951 26.8945 13.0951Z" fill="#EB5757"/>
<path d="M33.614 9.95644L32.2302 9.99079C32.2158 9.89919 32.1767 9.8176 32.113 9.74603C32.0493 9.67447 31.9666 9.61815 31.8649 9.57713C31.7632 9.53609 31.6456 9.51557 31.512 9.51557C31.3374 9.51557 31.1889 9.54803 31.0667 9.61291C30.9444 9.67781 30.8843 9.76559 30.8864 9.87628C30.8843 9.96216 30.9218 10.0366 30.9989 10.0996C31.0759 10.1626 31.2141 10.2131 31.4134 10.2513L32.3257 10.4116C32.7983 10.4956 33.1502 10.6349 33.3813 10.8296C33.6125 11.0243 33.7291 11.2819 33.7311 11.6025C33.7291 11.9041 33.633 12.1665 33.443 12.3898C33.2529 12.6131 32.9935 12.7863 32.6647 12.9094C32.336 13.0325 31.96 13.094 31.5367 13.094C30.8607 13.094 30.328 12.9647 29.9386 12.7061C29.5493 12.4475 29.3268 12.1006 29.2713 11.6655L30.76 11.6312C30.7929 11.7915 30.8781 11.9136 31.0158 11.9976C31.1535 12.0816 31.3292 12.1236 31.5428 12.1236C31.736 12.1236 31.8932 12.0902 32.0144 12.0233C32.1356 11.9566 32.1973 11.8678 32.1993 11.7571C32.1973 11.6579 32.15 11.5782 32.0576 11.5181C31.9651 11.458 31.8202 11.4107 31.623 11.3764L30.797 11.2304C30.3223 11.1502 29.9689 11.0018 29.7367 10.7852C29.5046 10.5686 29.3895 10.2923 29.3915 9.95644C29.3895 9.66253 29.4737 9.4111 29.6443 9.20211C29.8148 8.99313 30.0573 8.83329 30.3717 8.72258C30.686 8.61189 31.0569 8.55655 31.4843 8.55655C32.1254 8.55655 32.6308 8.68109 33.0007 8.93014C33.3705 9.17921 33.575 9.52131 33.614 9.95644Z" fill="#EB5757"/>
<path d="M34.0372 13.0115V8.61426H35.5444V13.0115H34.0372ZM34.7954 8.10184C34.5817 8.10184 34.3989 8.03646 34.2468 7.90575C34.0947 7.77502 34.0187 7.61709 34.0187 7.43196C34.0187 7.24874 34.0947 7.09177 34.2468 6.96103C34.3989 6.8303 34.5807 6.76492 34.7923 6.76492C35.006 6.76492 35.1884 6.8303 35.3394 6.96103C35.4904 7.09177 35.5659 7.24874 35.5659 7.43196C35.5659 7.61709 35.4904 7.77502 35.3394 7.90575C35.1884 8.03646 35.007 8.10184 34.7954 8.10184Z" fill="#EB5757"/>
<path d="M38.2722 14.7154C37.8222 14.7154 37.4369 14.6581 37.1164 14.5436C36.7959 14.4291 36.5442 14.2731 36.3613 14.0756C36.1784 13.878 36.0685 13.6571 36.0315 13.4128L37.4585 13.3384C37.4852 13.4166 37.535 13.4863 37.608 13.5474C37.6809 13.6084 37.7765 13.6566 37.8946 13.692C38.0128 13.7273 38.152 13.7449 38.3123 13.7449C38.565 13.7449 38.7741 13.6896 38.9395 13.5789C39.1049 13.4682 39.1876 13.2811 39.1876 13.0178V12.2448H39.1352C39.0756 12.3803 38.9852 12.5015 38.8639 12.6084C38.7427 12.7153 38.5922 12.7993 38.4124 12.8603C38.2326 12.9214 38.0266 12.9519 37.7945 12.9519C37.4493 12.9519 37.1334 12.877 36.8467 12.7272C36.5601 12.5774 36.331 12.3446 36.1594 12.0287C35.9878 11.7128 35.9021 11.3058 35.9021 10.8077C35.9021 10.2943 35.9904 9.87112 36.1671 9.53808C36.3438 9.20506 36.5755 8.95837 36.8621 8.79806C37.1488 8.63774 37.4575 8.55759 37.7883 8.55759C38.0369 8.55759 38.2501 8.5972 38.4278 8.6764C38.6056 8.7556 38.752 8.85724 38.867 8.98127C38.9821 9.10533 39.0694 9.23416 39.129 9.36776H39.1722V8.61484H40.6731V13.0292C40.6731 13.3899 40.5725 13.6958 40.3711 13.9467C40.1697 14.1977 39.8882 14.3886 39.5266 14.5193C39.165 14.65 38.7468 14.7154 38.2722 14.7154ZM38.3184 11.9328C38.5013 11.9328 38.6574 11.8879 38.7869 11.7982C38.9163 11.7085 39.016 11.5797 39.0859 11.4118C39.1557 11.2438 39.1906 11.0425 39.1906 10.8077C39.1906 10.5692 39.1562 10.3635 39.0874 10.1908C39.0186 10.0181 38.9189 9.88495 38.7884 9.79144C38.658 9.69792 38.5013 9.65117 38.3184 9.65117C38.1314 9.65117 37.9732 9.69887 37.8438 9.7943C37.7143 9.88974 37.6162 10.0238 37.5494 10.1965C37.4827 10.3692 37.4493 10.573 37.4493 10.8077C37.4493 11.0425 37.4832 11.2438 37.551 11.4118C37.6188 11.5797 37.7169 11.7085 37.8453 11.7982C37.9737 11.8879 38.1314 11.9328 38.3184 11.9328Z" fill="#EB5757"/>
<path d="M42.705 10.5043V13.012H41.1978V8.61484H42.631V9.42215H42.6834C42.7882 9.15305 42.967 8.94168 43.2197 8.78804C43.4724 8.63441 43.7734 8.55759 44.1227 8.55759C44.4556 8.55759 44.7448 8.62678 44.9903 8.76514C45.2359 8.9035 45.427 9.09628 45.5636 9.34342C45.7003 9.59056 45.7675 9.87923 45.7655 10.2094V13.012H44.2584V10.4842C44.2604 10.2399 44.1941 10.0491 44.0595 9.91167C43.925 9.77426 43.7385 9.70556 43.5002 9.70556C43.3419 9.70556 43.2027 9.73753 43.0825 9.80145C42.9623 9.8654 42.8699 9.95652 42.8051 10.0749C42.7404 10.1932 42.707 10.3363 42.705 10.5043Z" fill="#EB5757"/>
<path d="M18.779 19.9166V14.0537H21.4111C21.8837 14.0537 22.2797 14.1157 22.5992 14.2398C22.9187 14.3638 23.1591 14.5375 23.3204 14.7608C23.4817 14.9841 23.5624 15.2427 23.5624 15.5366C23.5624 15.7599 23.512 15.9589 23.4114 16.1335C23.3107 16.3081 23.172 16.4527 22.9953 16.5672C22.8186 16.6817 22.6141 16.7619 22.3819 16.8077V16.8649C22.6367 16.8764 22.8725 16.9403 23.0893 17.0567C23.3061 17.1732 23.4802 17.3349 23.6117 17.542C23.7432 17.7491 23.8089 17.9938 23.8089 18.2763C23.8089 18.5912 23.7227 18.8722 23.55 19.1194C23.3774 19.3665 23.1278 19.5612 22.8011 19.7034C22.4744 19.8455 22.0778 19.9166 21.6114 19.9166H18.779ZM20.3046 18.7744H21.2477C21.5785 18.7744 21.8225 18.7162 21.9797 18.5998C22.1369 18.4834 22.2155 18.3211 22.2155 18.1131C22.2155 17.9623 22.1775 17.8321 22.1015 17.7223C22.0254 17.6126 21.9176 17.5277 21.7778 17.4675C21.6381 17.4074 21.4707 17.3774 21.2755 17.3774H20.3046V18.7744ZM20.3046 16.4641H21.1491C21.3155 16.4641 21.4635 16.4384 21.5929 16.3868C21.7224 16.3353 21.8236 16.2609 21.8965 16.1636C21.9694 16.0662 22.0059 15.9489 22.0059 15.8114C22.0059 15.6149 21.9309 15.4603 21.7809 15.3477C21.6309 15.2351 21.4285 15.1788 21.1737 15.1788H20.3046V16.4641Z" fill="#EB5757"/>
<path d="M27.1628 18.0186V15.5195H28.6669V19.9167H27.2306V19.0979H27.1813C27.0765 19.367 26.8983 19.5803 26.6466 19.7377C26.3949 19.8952 26.0913 19.9739 25.7358 19.9739C25.4132 19.9739 25.1297 19.9052 24.8852 19.7678C24.6406 19.6304 24.4506 19.4381 24.315 19.191C24.1794 18.9438 24.1105 18.6542 24.1085 18.3221V15.5195H25.6156V18.0473C25.6177 18.2858 25.6855 18.4738 25.819 18.6113C25.9526 18.7487 26.1344 18.8174 26.3646 18.8174C26.5145 18.8174 26.6497 18.7863 26.7699 18.7243C26.8901 18.6623 26.9856 18.5716 27.0565 18.4524C27.1274 18.3331 27.1628 18.1885 27.1628 18.0186Z" fill="#EB5757"/>
<path d="M33.3251 16.8624L31.9412 16.8968C31.9268 16.8052 31.8878 16.7236 31.8241 16.652C31.7604 16.5804 31.6777 16.5241 31.576 16.4831C31.4743 16.4421 31.3566 16.4216 31.2231 16.4216C31.0484 16.4216 30.9 16.454 30.7777 16.5189C30.6555 16.5838 30.5953 16.6716 30.5974 16.7823C30.5953 16.8682 30.6329 16.9426 30.7099 17.0056C30.787 17.0685 30.9251 17.1191 31.1245 17.1573L32.0368 17.3176C32.5093 17.4016 32.8612 17.5409 33.0924 17.7356C33.3235 17.9302 33.4401 18.1879 33.4422 18.5085C33.4401 18.81 33.3441 19.0725 33.154 19.2958C32.9639 19.5191 32.7045 19.6922 32.3758 19.8154C32.047 19.9385 31.671 20 31.2477 20C30.5717 20 30.039 19.8707 29.6497 19.6121C29.2603 19.3535 29.0379 19.0066 28.9824 18.5715L30.471 18.5371C30.5039 18.6975 30.5892 18.8196 30.7269 18.9036C30.8645 18.9875 31.0402 19.0295 31.2539 19.0295C31.447 19.0295 31.6042 18.9961 31.7255 18.9293C31.8467 18.8625 31.9083 18.7738 31.9104 18.6631C31.9083 18.5639 31.8611 18.4842 31.7686 18.424C31.6761 18.3639 31.5313 18.3167 31.334 18.2823L30.508 18.1364C30.0334 18.0562 29.68 17.9078 29.4478 17.6912C29.2156 17.4746 29.1005 17.1983 29.1026 16.8624C29.1005 16.5685 29.1848 16.3171 29.3553 16.1081C29.5259 15.8991 29.7683 15.7393 30.0827 15.6286C30.3971 15.5179 30.768 15.4625 31.1953 15.4625C31.8364 15.4625 32.3419 15.5871 32.7117 15.8361C33.0816 16.0852 33.286 16.4273 33.3251 16.8624Z" fill="#EB5757"/>
<path d="M36.42 15.5195V16.5501H33.4335V15.5195H36.42ZM34.0592 14.466H35.5663V18.534C35.5663 18.6199 35.5812 18.6891 35.611 18.7415C35.6408 18.794 35.6845 18.8312 35.742 18.8532C35.7995 18.8751 35.8683 18.8861 35.9485 18.8861C36.006 18.8861 36.0671 18.8809 36.1319 18.8704C36.1966 18.8599 36.2454 18.8508 36.2783 18.8432L36.5063 19.8537C36.4344 19.8728 36.3332 19.8967 36.2028 19.9253C36.0723 19.9539 35.9166 19.972 35.7358 19.9797C35.3824 19.9949 35.0799 19.9563 34.8281 19.8637C34.5764 19.7712 34.3843 19.6266 34.2518 19.43C34.1193 19.2335 34.055 18.9863 34.0592 18.6886V14.466Z" fill="#EB5757"/>
<path d="M38.9201 20C38.4249 20 37.998 19.9089 37.6395 19.7266C37.281 19.5444 37.0056 19.2838 36.8135 18.9451C36.6214 18.6063 36.5253 18.2031 36.5253 17.7356C36.5253 17.2813 36.6219 16.8839 36.815 16.5432C37.0082 16.2025 37.2804 15.9373 37.6318 15.7474C37.9831 15.5575 38.3972 15.4625 38.8739 15.4625C39.2108 15.4625 39.5191 15.5112 39.7985 15.6085C40.0779 15.7059 40.3194 15.85 40.5228 16.0408C40.7262 16.2317 40.8844 16.4669 40.9974 16.7465C41.1104 17.0261 41.1669 17.3462 41.1669 17.7069V18.0562H37.0524V17.2432H39.7646C39.7626 17.0943 39.7245 16.9617 39.6506 16.8453C39.5766 16.7288 39.4754 16.6377 39.347 16.5718C39.2186 16.506 39.0711 16.4731 38.9047 16.4731C38.7362 16.4731 38.5852 16.5079 38.4516 16.5776C38.3181 16.6472 38.2123 16.7417 38.1342 16.861C38.0561 16.9803 38.015 17.1153 38.0109 17.2661V18.0934C38.0109 18.2728 38.0489 18.4298 38.1249 18.5643C38.201 18.6989 38.3088 18.8034 38.4485 18.8778C38.5883 18.9522 38.7547 18.9895 38.9478 18.9895C39.0814 18.9895 39.2026 18.9723 39.3115 18.9379C39.4204 18.9036 39.5139 18.853 39.592 18.7862C39.6701 18.7194 39.7286 18.6373 39.7677 18.54L41.1515 18.5772C41.094 18.8654 40.9681 19.1159 40.774 19.3287C40.5798 19.5415 40.3255 19.7066 40.0112 19.8239C39.6968 19.9413 39.3331 20 38.9201 20Z" fill="#EB5757"/>
<path d="M41.5068 19.9167V15.5195H42.9708V16.3211H43.0201C43.1064 16.031 43.2472 15.8148 43.4424 15.6726C43.6376 15.5305 43.8646 15.4594 44.1235 15.4594C44.1934 15.4594 44.2653 15.4636 44.3393 15.4723C44.4132 15.4808 44.4821 15.4937 44.5458 15.5109V16.7276C44.4738 16.7047 44.3798 16.6865 44.2637 16.6732C44.1476 16.6598 44.0444 16.6531 43.954 16.6531C43.7752 16.6531 43.6144 16.6899 43.4716 16.7634C43.3288 16.8368 43.2169 16.9389 43.1357 17.0697C43.0545 17.2004 43.0139 17.3536 43.0139 17.5291V19.9167H41.5068Z" fill="#EB5757"/>
</svg>
