<svg width="34" height="34" viewBox="0 0 34 34" fill="none" xmlns="http://www.w3.org/2000/svg">
<path fill-rule="evenodd" clip-rule="evenodd" d="M32.5833 7.33619C31.4357 7.85488 30.2038 8.20499 28.9136 8.3606C30.2297 7.55015 31.2412 6.2664 31.721 4.73627C30.4826 5.48188 29.1211 6.02651 27.6622 6.31827C26.4952 5.041 24.8354 4.25 23.0005 4.25C19.4735 4.25 16.6142 7.18058 16.6142 10.7919C16.6142 11.3042 16.6661 11.8034 16.7763 12.2767C11.4662 11.9979 6.7656 9.39797 3.61458 5.43001C3.06347 6.39607 2.74578 7.52421 2.74578 8.72368C2.74578 10.9929 3.86742 12.9964 5.58558 14.1699C4.53523 14.1375 3.54974 13.8392 2.68743 13.353V13.4308C2.68743 16.6013 4.88536 19.2466 7.80946 19.8495C7.27133 19.9987 6.70725 20.0765 6.12372 20.0765C5.70878 20.0765 5.30678 20.0311 4.91777 19.9598C5.72822 22.5597 8.08176 24.4529 10.8762 24.4983C8.69122 26.2553 5.9357 27.2992 2.94028 27.2992C2.42159 27.2992 1.90938 27.2668 1.41663 27.2084C4.23699 29.0627 7.59549 30.1455 11.2004 30.1455C22.9422 30.1455 29.3609 20.1672 29.3609 11.5181C29.3609 11.2328 29.3545 10.9476 29.3415 10.6688C30.5863 9.7416 31.6691 8.58753 32.5249 7.27784" fill="#333333"/>
</svg>
